<?xml version="1.0" encoding="utf-8"?>
<!-- Generator: Adobe Illustrator 19.1.0, SVG Export Plug-In . SVG Version: 6.00 Build 0)  -->
<svg version="1.1" id="Layer_1" xmlns="http://www.w3.org/2000/svg" xmlns:xlink="http://www.w3.org/1999/xlink" x="0px" y="0px"
	 viewBox="0 0 20 20" style="enable-background:new 0 0 20 20;" xml:space="preserve">
<style type="text/css">
	.st0{fill:#FBFBFB;}
</style>
<path class="st0" d="M16.3,12.3C16.2,10,15,8.2,13.5,6.5c-1-1.1-2-2.3-2.9-3.5C10.1,2.3,9.8,1.5,10,0.6C10,0.4,10,0.2,10.1,0
	C8.4,1.6,7.6,3.4,8.3,5.7c0.1,0.5,0.2,1,0.2,1.5C8.5,8,8,8.4,7.3,8.4C6.6,8.3,6.3,8,6.3,7.2C4,8.3,2.3,11.3,3.1,14.6
	c0.7,2.7,3.5,4.7,5.4,4.4c-0.3-0.3-0.6-0.6-0.9-0.9c-0.5-0.6-0.8-1.3-0.9-2.1c-0.1-1.4,0.6-2.6,1.4-3.7c0.6-0.7,1.3-1.4,1.4-2.3
	c0.1-0.9,0-1.8,0-2.7C10.4,8,11,8.9,11.3,10c0.6,2,0.3,3.8-0.9,5.5c1.1-0.1,1.8-0.8,2.5-2.8c0.5,1.2,0.6,2.4,0.3,3.6
	C13,17.5,12.2,18.4,11,19c1.2,0,2.2-0.5,3.3-1.6C15.8,16.1,16.4,14.3,16.3,12.3z"/>
</svg>
