<?xml version="1.0" encoding="utf-8"?>
<!-- Generator: Adobe Illustrator 20.0.0, SVG Export Plug-In . SVG Version: 6.00 Build 0)  -->
<svg version="1.1" id="Layer_1" xmlns="http://www.w3.org/2000/svg" xmlns:xlink="http://www.w3.org/1999/xlink" x="0px" y="0px"
	 viewBox="0 0 500 500" style="enable-background:new 0 0 500 500;" xml:space="preserve">
<style type="text/css">
	.st0{fill:#CF2629;stroke:#000000;stroke-width:20;stroke-miterlimit:10;}
	.st1{fill:#010101;}
</style>
<path class="st0" d="M409.9,490H90.1c-44,0-80.1-36.1-80.1-80.1V90.1C10,46.1,46.1,10,90.1,10h319.7c44.1,0,80.1,36.1,80.1,80.1
	v319.7C490,453.9,453.9,490,409.9,490z"/>
<path class="st1" d="M250,25c-66.2,0-120,53.8-120,120s53.8,120,120,120s120-53.8,120-120S316.2,25,250,25z M187.6,178.8
	c0.2,1.3,0.2,3.4,1,5.5c0.4,1.1,0.7,2.3,1.2,3.5c0.2,1.3,1.2,2.4,1.8,3.7c0.7,1.2,1.3,2.6,2.4,3.7l2.9,3.5l3.5,3
	c1.1,1.1,2.5,1.7,3.7,2.4c1.3,0.6,2.4,1.6,3.7,1.8c1.2,0.4,2.4,0.8,3.5,1.2c2.2,0.7,4.2,0.7,5.5,1c1.3,0.2,2.2,0.2,2.2,0.2
	s-0.7,0-2.2-0.1c-1.3-0.2-3.4,0.1-5.6-0.6c-1.1-0.4-2.4-0.7-3.6-1.1c-1.3-0.2-2.5-1.1-3.8-1.8c-1.3-0.7-2.8-1.3-3.8-2.3l-3.6-2.9
	l-2.9-3.7c-1.1-1.1-1.7-2.6-2.4-3.8c-0.6-1.3-1.6-2.5-1.8-3.8c-0.4-1.3-0.7-2.5-1.1-3.6c-0.7-2.3-0.4-4.2-0.6-5.5
	c-0.1-1.3-0.1-2.2-0.1-2.2S187.4,177.5,187.6,178.8z M168.6,168.6c0.6,2.6,0.5,6.6,2,11c0.7,2.2,1.6,4.6,2.4,7
	c0.6,2.5,2.4,4.8,3.7,7.3c1.4,2.4,2.5,5.3,4.7,7.4c1.9,2.3,3.8,4.7,5.9,7c2.3,1.9,4.7,4,7,5.9c2.2,2.2,4.9,3.2,7.4,4.7
	c2.5,1.2,4.8,3.1,7.3,3.7c2.5,0.8,4.8,1.7,7.1,2.4c4.3,1.6,8.3,1.4,10.9,2c2.6,0.4,4.2,0.6,4.2,0.6s-1.6-0.1-4.2-0.2
	c-1.3-0.1-3-0.1-4.9-0.2c-1.9-0.1-4.1-0.1-6.2-1c-2.3-0.6-4.7-1.3-7.3-2c-2.6-0.5-5-2.2-7.7-3.5c-2.5-1.4-5.5-2.5-7.7-4.7
	c-2.4-1.9-4.8-4-7.3-5.9c-2-2.4-4-4.9-5.9-7.3c-2.2-2.3-3.2-5.2-4.8-7.7c-1.3-2.6-3-5-3.5-7.7c-0.7-2.6-1.4-5-2-7.3
	c-0.8-2.3-0.8-4.3-1-6.2c-0.1-1.9-0.2-3.5-0.2-4.9c-0.1-2.8-0.2-4.2-0.2-4.2S168.2,166,168.6,168.6z M234.6,245.8
	c-2,0.1-4.6,0-7.3-0.4c-2.9-0.2-6.1-0.5-9.5-1.4c-1.7-0.4-3.5-0.8-5.4-1.2c-1.8-0.6-3.7-1.2-5.6-1.8c-4-1.1-7.8-3.1-11.8-4.9
	c-3.8-2.3-7.9-4.4-11.6-7.3c-3.8-2.6-7.3-5.9-10.9-9.1c-3.1-3.6-6.5-7-9.1-10.9c-2.9-3.7-5-7.8-7.3-11.5c-1.8-4.1-3.8-7.9-4.9-11.8
	c-1.4-3.8-2.4-7.6-3.1-11c-1-3.4-1.2-6.7-1.4-9.5c-0.4-2.9-0.5-5.3-0.4-7.3c0.1-4.1,0.1-6.5,0.1-6.5s0.2,2.3,0.7,6.4
	c0.1,2,0.5,4.4,1.2,7.2c0.6,2.8,1.2,5.9,2.2,9.1c0.8,3.4,2,6.8,3.6,10.4c1.3,3.7,3.6,7.2,5.3,11.2c2.3,3.6,4.4,7.6,7.3,10.9
	c2.5,3.7,5.9,6.8,8.9,10.2c3.4,3,6.6,6.4,10.2,8.9c3.5,2.9,7.3,4.9,10.9,7.3c3.8,1.8,7.4,4.1,11.2,5.3c1.8,0.7,3.6,1.4,5.3,2.2
	c1.8,0.5,3.5,1.1,5.2,1.6c3.2,1.1,6.4,1.7,9.1,2.2c2.8,0.6,5.2,1.1,7.2,1.2c4.1,0.5,6.4,0.7,6.4,0.7S238.7,245.7,234.6,245.8z
	 M250,192.4c-26.2,0-47.4-21.2-47.4-47.4s21.2-47.4,47.4-47.4c26.2,0,47.4,21.2,47.4,47.4S276.2,192.4,250,192.4z M309,107.6
	c-0.2-1.3-0.2-3.4-1-5.5c-0.4-1.1-0.7-2.3-1.1-3.5c-0.2-1.3-1.2-2.4-1.8-3.7c-0.7-1.2-1.3-2.6-2.4-3.7l-2.9-3.5l-3.5-3
	c-1.1-1.1-2.5-1.7-3.7-2.4c-1.3-0.7-2.4-1.6-3.7-1.9c-1.2-0.5-2.4-0.8-3.5-1.2c-2.2-0.8-4.1-0.7-5.4-1.1c-1.3-0.2-2.2-0.4-2.2-0.4
	s0.7,0,2.2,0.1c1.3,0.2,3.4-0.1,5.6,0.7c1.1,0.4,2.3,0.7,3.6,1.1c1.3,0.2,2.5,1.2,3.8,1.8c1.3,0.7,2.8,1.3,3.8,2.4l3.6,3l2.9,3.7
	c1.1,1.1,1.6,2.6,2.3,3.8c0.6,1.3,1.4,2.5,1.7,3.8c0.4,1.3,0.7,2.5,1.1,3.7c0.7,2.3,0.4,4.2,0.6,5.5c0.1,1.3,0.1,2.2,0.1,2.2
	S309.3,108.9,309,107.6z M328,118c-0.6-2.6-0.4-6.7-1.9-11c-0.7-2.2-1.4-4.6-2.3-7c-0.6-2.5-2.4-4.8-3.6-7.4
	c-1.4-2.5-2.5-5.3-4.7-7.4c-1.9-2.3-3.8-4.7-5.8-7c-2.3-2-4.7-4-7-5.9c-2.2-2.2-4.9-3.2-7.3-4.8c-2.5-1.3-4.8-3.1-7.3-3.7
	c-2.5-0.8-4.8-1.7-7-2.4c-4.3-1.7-8.3-1.6-10.9-2.2c-2.6-0.4-4.2-0.6-4.2-0.6s1.6,0.1,4.2,0.2c1.3,0.1,3,0.2,4.9,0.4
	c1.9,0.1,4.1,0.1,6.2,1.1c2.3,0.7,4.7,1.4,7.3,2.2c2.6,0.5,5,2.3,7.7,3.6c2.5,1.4,5.4,2.6,7.7,4.8c2.4,1.9,4.8,4,7.2,6
	c1.9,2.5,4,4.9,5.9,7.3c2.2,2.3,3.2,5.2,4.7,7.8c1.2,2.6,3,5,3.5,7.8c0.7,2.6,1.3,5,2,7.3c0.8,2.3,0.8,4.4,0.8,6.2
	c0.1,1.9,0.1,3.5,0.2,4.9c0.1,2.8,0.2,4.2,0.2,4.2S328.4,120.6,328,118z M350.1,136c0,0-0.2-2.3-0.7-6.4c-0.1-2-0.5-4.4-1.1-7.2
	c-0.5-2.8-1.1-5.9-2.2-9.1c-0.8-3.4-2-6.8-3.6-10.6c-1.2-3.7-3.5-7.3-5.2-11.2c-2.3-3.6-4.3-7.6-7.2-11c-2.5-3.7-5.8-7-8.8-10.3
	c-3.4-3.1-6.5-6.4-10.2-9c-3.4-2.9-7.3-5-10.9-7.4c-3.8-1.8-7.3-4.1-11-5.4c-1.8-0.7-3.6-1.4-5.3-2.2c-1.8-0.5-3.5-1.1-5.2-1.6
	c-3.2-1.1-6.4-1.7-9.1-2.3c-2.8-0.7-5.2-1.1-7.2-1.2c-4.1-0.5-6.4-0.8-6.4-0.8s2.3,0,6.4,0c2-0.1,4.6,0.1,7.3,0.5
	c2.9,0.2,6.1,0.6,9.5,1.6c1.7,0.4,3.5,0.8,5.4,1.3c1.8,0.6,3.7,1.2,5.6,1.9c4,1.1,7.7,3.2,11.8,5c3.7,2.4,7.9,4.6,11.5,7.4
	c3.8,2.6,7.3,6,10.8,9.2c3.1,3.6,6.4,7.1,9,11c2.9,3.7,4.9,7.8,7.2,11.6c1.8,4.1,3.8,7.9,4.8,11.9c1.3,3.8,2.3,7.6,3,11
	c0.8,3.5,1.1,6.7,1.3,9.6c0.4,2.9,0.5,5.3,0.4,7.3C350.2,133.6,350.1,136,350.1,136z"/>
<circle class="st1" cx="250" cy="145" r="7.5"/>
<g>
	<g>
		<path d="M263.3,280.1c9.5,0,19.1,0,28.6,0c18.9,0.1,37.2,3.1,54.8,10.3c12.7,5.2,24.6,11.7,35.8,19.5c8.2,5.6,15.6,12.1,22.2,19.3
			c5,5.5,9.8,11.2,14.1,17.4c4.7,6.8,8.3,14.1,12.3,21.2c3.3,5.7,4.7,12.2,7,18.4c4.2,11.3,5.6,23.1,6.6,34.9
			c0.1,0.8,0.1,1.5,0.2,2.3c1.6,16-10.9,25.9-25,26.4c-7.9,0.3-15.8,0.5-23.7-0.4c-0.9-0.1-1.8-0.1-2.6-0.1
			c-46.7,0-93.5-0.5-140.2,0.1c-56.9,0.7-113.8,0.1-170.7,0.4c-4.7,0-9.3-0.2-13.7-2.1c-8.7-3.6-13.8-10.4-14-19.4
			c-0.2-10.9,0.4-22,4-32.6c0.9-2.6,1.4-5.2,2-7.9c2.7-11.6,8.3-22,14.2-32.2c5-8.7,11.1-16.8,17.9-24.3
			c11.1-12.2,24-22.4,38.5-30.6c10-5.6,20.2-10.5,31.1-14c9.6-3.1,19.4-5.1,29.5-5.4C215.8,280.6,239.5,279.8,263.3,280.1z"/>
	</g>
</g>
</svg>
